<svg width="180" height="180" viewBox="0 0 180 180" xmlns="http://www.w3.org/2000/svg">
  <!-- Background with gradient -->
  <defs>
    <radialGradient id="bgGradient" cx="50%" cy="30%" r="70%">
      <stop offset="0%" style="stop-color:#4A90E2;stop-opacity:1" />
      <stop offset="100%" style="stop-color:#2C5282;stop-opacity:1" />
    </radialGradient>
    <linearGradient id="waveGradient" x1="0%" y1="0%" x2="100%" y2="0%">
      <stop offset="0%" style="stop-color:#60A5FA;stop-opacity:0.8" />
      <stop offset="50%" style="stop-color:#3B82F6;stop-opacity:0.9" />
      <stop offset="100%" style="stop-color:#1E40AF;stop-opacity:0.8" />
    </linearGradient>
    <filter id="glow">
      <feGaussianBlur stdDeviation="2" result="coloredBlur"/>
      <feMerge> 
        <feMergeNode in="coloredBlur"/>
        <feMergeNode in="SourceGraphic"/>
      </feMerge>
    </filter>
  </defs>
  
  <!-- Background circle -->
  <circle cx="90" cy="90" r="85" fill="url(#bgGradient)" stroke="#1E40AF" stroke-width="2"/>
  
  <!-- Network grid pattern -->
  <g opacity="0.3" stroke="#FFFFFF" stroke-width="1" fill="none">
    <!-- Horizontal lines -->
    <line x1="30" y1="50" x2="150" y2="50"/>
    <line x1="30" y1="70" x2="150" y2="70"/>
    <line x1="30" y1="90" x2="150" y2="90"/>
    <line x1="30" y1="110" x2="150" y2="110"/>
    <line x1="30" y1="130" x2="150" y2="130"/>
    
    <!-- Vertical lines -->
    <line x1="50" y1="30" x2="50" y2="150"/>
    <line x1="70" y1="30" x2="70" y2="150"/>
    <line x1="90" y1="30" x2="90" y2="150"/>
    <line x1="110" y1="30" x2="110" y2="150"/>
    <line x1="130" y1="30" x2="130" y2="150"/>
  </g>
  
  <!-- Central network hub -->
  <circle cx="90" cy="90" r="8" fill="#FFFFFF" filter="url(#glow)"/>
  
  <!-- Network nodes -->
  <circle cx="60" cy="60" r="4" fill="#60A5FA"/>
  <circle cx="120" cy="60" r="4" fill="#60A5FA"/>
  <circle cx="60" cy="120" r="4" fill="#60A5FA"/>
  <circle cx="120" cy="120" r="4" fill="#60A5FA"/>
  <circle cx="45" cy="90" r="3" fill="#93C5FD"/>
  <circle cx="135" cy="90" r="3" fill="#93C5FD"/>
  <circle cx="90" cy="45" r="3" fill="#93C5FD"/>
  <circle cx="90" cy="135" r="3" fill="#93C5FD"/>
  
  <!-- Connection lines -->
  <g stroke="#FFFFFF" stroke-width="2" opacity="0.8">
    <line x1="90" y1="90" x2="60" y2="60"/>
    <line x1="90" y1="90" x2="120" y2="60"/>
    <line x1="90" y1="90" x2="60" y2="120"/>
    <line x1="90" y1="90" x2="120" y2="120"/>
    <line x1="90" y1="90" x2="45" y2="90"/>
    <line x1="90" y1="90" x2="135" y2="90"/>
    <line x1="90" y1="90" x2="90" y2="45"/>
    <line x1="90" y1="90" x2="90" y2="135"/>
  </g>
  
  <!-- Data flow animation paths -->
  <g fill="url(#waveGradient)" opacity="0.6">
    <circle cx="75" cy="75" r="2">
      <animate attributeName="opacity" values="0.6;1;0.6" dur="2s" repeatCount="indefinite"/>
    </circle>
    <circle cx="105" cy="75" r="2">
      <animate attributeName="opacity" values="1;0.6;1" dur="2s" repeatCount="indefinite"/>
    </circle>
    <circle cx="75" cy="105" r="2">
      <animate attributeName="opacity" values="0.6;1;0.6" dur="2.5s" repeatCount="indefinite"/>
    </circle>
    <circle cx="105" cy="105" r="2">
      <animate attributeName="opacity" values="1;0.6;1" dur="1.5s" repeatCount="indefinite"/>
    </circle>
  </g>
  
  <!-- StreamSwarm text -->
  <text x="90" y="160" text-anchor="middle" fill="#FFFFFF" font-family="Arial, sans-serif" font-size="12" font-weight="bold" opacity="0.9">StreamSwarm</text>
</svg>