<?xml version="1.0" encoding="UTF-8"?>
<svg width="1200" height="900" viewBox="0 0 1200 900" xmlns="http://www.w3.org/2000/svg">
  <defs>
    <style>
      .title { font-family: Arial, sans-serif; font-size: 24px; font-weight: bold; fill: #2c3e50; }
      .subtitle { font-family: Arial, sans-serif; font-size: 16px; fill: #34495e; }
      .label { font-family: Arial, sans-serif; font-size: 12px; fill: #2c3e50; }
      .small-label { font-family: Arial, sans-serif; font-size: 10px; fill: #7f8c8d; }
      .server-box { fill: #3498db; stroke: #2980b9; stroke-width: 2; }
      .client-box { fill: #e74c3c; stroke: #c0392b; stroke-width: 2; }
      .internet-box { fill: #f39c12; stroke: #e67e22; stroke-width: 2; }
      .network-box { fill: #2ecc71; stroke: #27ae60; stroke-width: 2; }
      .database-box { fill: #9b59b6; stroke: #8e44ad; stroke-width: 2; }
      .connection-line { stroke: #7f8c8d; stroke-width: 2; fill: none; }
      .data-flow { stroke: #e74c3c; stroke-width: 3; fill: none; stroke-dasharray: 5,5; }
      .internet-flow { stroke: #f39c12; stroke-width: 2; fill: none; }
      .white-text { fill: white; font-family: Arial, sans-serif; font-size: 11px; font-weight: bold; }
      .dependency-text { fill: #e67e22; font-family: Arial, sans-serif; font-size: 10px; }
    </style>
    
    <marker id="arrowhead" markerWidth="10" markerHeight="7" refX="9" refY="3.5" orient="auto">
      <polygon points="0 0, 10 3.5, 0 7" fill="#7f8c8d" />
    </marker>
    
    <marker id="dataflow" markerWidth="10" markerHeight="7" refX="9" refY="3.5" orient="auto">
      <polygon points="0 0, 10 3.5, 0 7" fill="#e74c3c" />
    </marker>
    
    <marker id="internetflow" markerWidth="10" markerHeight="7" refX="9" refY="3.5" orient="auto">
      <polygon points="0 0, 10 3.5, 0 7" fill="#f39c12" />
    </marker>
  </defs>

  <!-- Title -->
  <text x="600" y="30" text-anchor="middle" class="title">StreamSwarm Distributed Network Monitoring Architecture</text>
  <text x="600" y="55" text-anchor="middle" class="subtitle">Enterprise Network Performance Management Platform</text>

  <!-- Central Server Section -->
  <rect x="400" y="100" width="400" height="200" rx="10" class="server-box"/>
  <text x="600" y="125" text-anchor="middle" class="white-text" font-size="14">STREAMSWARM SERVER</text>
  <text x="600" y="145" text-anchor="middle" class="white-text" font-size="12">Flask Web Application</text>
  
  <!-- Server Components Grid -->
  <rect x="420" y="160" width="110" height="50" rx="5" fill="rgba(255,255,255,0.2)"/>
  <text x="475" y="180" text-anchor="middle" class="white-text" font-size="10">Web GUI</text>
  <text x="475" y="195" text-anchor="middle" class="white-text" font-size="10">Dashboard</text>
  
  <rect x="545" y="160" width="110" height="50" rx="5" fill="rgba(255,255,255,0.2)"/>
  <text x="600" y="180" text-anchor="middle" class="white-text" font-size="10">REST API</text>
  <text x="600" y="195" text-anchor="middle" class="white-text" font-size="10">Client Management</text>
  
  <rect x="670" y="160" width="110" height="50" rx="5" fill="rgba(255,255,255,0.2)"/>
  <text x="725" y="180" text-anchor="middle" class="white-text" font-size="10">AI/ML Engine</text>
  <text x="725" y="195" text-anchor="middle" class="white-text" font-size="10">Analytics</text>
  
  <rect x="420" y="225" width="110" height="50" rx="5" fill="rgba(255,255,255,0.2)"/>
  <text x="475" y="245" text-anchor="middle" class="white-text" font-size="10">Geo Processing</text>
  <text x="475" y="260" text-anchor="middle" class="white-text" font-size="10">Path Analysis</text>
  
  <rect x="545" y="225" width="110" height="50" rx="5" fill="rgba(255,255,255,0.2)"/>
  <text x="600" y="245" text-anchor="middle" class="white-text" font-size="10">Test Scheduler</text>
  <text x="600" y="260" text-anchor="middle" class="white-text" font-size="10">Job Queue</text>
  
  <rect x="670" y="225" width="110" height="50" rx="5" fill="rgba(255,255,255,0.2)"/>
  <text x="725" y="245" text-anchor="middle" class="white-text" font-size="10">GNMI Analysis</text>
  <text x="725" y="260" text-anchor="middle" class="white-text" font-size="10">Telemetry</text>

  <!-- Database -->
  <rect x="450" y="320" width="300" height="80" rx="10" class="database-box"/>
  <text x="600" y="345" text-anchor="middle" class="white-text" font-size="12">PostgreSQL Database</text>
  <text x="600" y="365" text-anchor="middle" class="white-text" font-size="11">Test Results • Client Data • Performance Metrics</text>
  <text x="600" y="385" text-anchor="middle" class="white-text" font-size="11">65+ Advanced Network Metrics per Test</text>

  <!-- Database connection -->
  <line x1="600" y1="300" x2="600" y2="320" class="connection-line" marker-end="url(#arrowhead)"/>

  <!-- External Internet Dependencies -->
  <rect x="850" y="100" width="200" height="140" rx="10" class="internet-box"/>
  <text x="950" y="125" text-anchor="middle" class="white-text" font-size="12">EXTERNAL DEPENDENCIES</text>
  
  <rect x="870" y="145" width="160" height="30" rx="3" fill="rgba(255,255,255,0.2)"/>
  <text x="950" y="165" text-anchor="middle" class="white-text" font-size="10">ip-api.com (HTTP:80)</text>
  
  <rect x="870" y="185" width="160" height="30" rx="3" fill="rgba(255,255,255,0.2)"/>
  <text x="950" y="205" text-anchor="middle" class="white-text" font-size="10">Geolocation Services</text>
  
  <rect x="870" y="220" width="160" height="20" rx="3" fill="rgba(255,255,255,0.2)"/>
  <text x="950" y="233" text-anchor="middle" class="white-text" font-size="9">Map Generation</text>

  <!-- Internet connection -->
  <line x1="800" y1="180" x2="850" y2="180" class="internet-flow" marker-end="url(#internetflow)"/>
  <text x="825" y="175" text-anchor="middle" class="dependency-text" font-size="9">HTTP</text>

  <!-- Distributed Clients Section -->
  
  <!-- Branch Office 1 -->
  <rect x="50" y="150" width="160" height="120" rx="10" class="network-box"/>
  <text x="130" y="175" text-anchor="middle" class="white-text" font-size="12">BRANCH OFFICE 1</text>
  <text x="130" y="195" text-anchor="middle" class="white-text" font-size="11">New York</text>
  
  <rect x="70" y="210" width="120" height="50" rx="5" class="client-box"/>
  <text x="130" y="230" text-anchor="middle" class="white-text" font-size="10">StreamSwarm Client</text>
  <text x="130" y="245" text-anchor="middle" class="white-text" font-size="10">Network Testing Agent</text>

  <!-- Branch Office 2 -->
  <rect x="50" y="300" width="160" height="120" rx="10" class="network-box"/>
  <text x="130" y="325" text-anchor="middle" class="white-text" font-size="12">BRANCH OFFICE 2</text>
  <text x="130" y="345" text-anchor="middle" class="white-text" font-size="11">London</text>
  
  <rect x="70" y="360" width="120" height="50" rx="5" class="client-box"/>
  <text x="130" y="380" text-anchor="middle" class="white-text" font-size="10">StreamSwarm Client</text>
  <text x="130" y="395" text-anchor="middle" class="white-text" font-size="10">Network Testing Agent</text>

  <!-- Data Center -->
  <rect x="50" y="450" width="160" height="120" rx="10" class="network-box"/>
  <text x="130" y="475" text-anchor="middle" class="white-text" font-size="12">DATA CENTER</text>
  <text x="130" y="495" text-anchor="middle" class="white-text" font-size="11">Tokyo</text>
  
  <rect x="70" y="510" width="120" height="50" rx="5" class="client-box"/>
  <text x="130" y="530" text-anchor="middle" class="white-text" font-size="10">StreamSwarm Client</text>
  <text x="130" y="545" text-anchor="middle" class="white-text" font-size="10">Network Testing Agent</text>

  <!-- Remote Office -->
  <rect x="50" y="600" width="160" height="120" rx="10" class="network-box"/>
  <text x="130" y="625" text-anchor="middle" class="white-text" font-size="12">REMOTE OFFICE</text>
  <text x="130" y="645" text-anchor="middle" class="white-text" font-size="11">Singapore</text>
  
  <rect x="70" y="660" width="120" height="50" rx="5" class="client-box"/>
  <text x="130" y="680" text-anchor="middle" class="white-text" font-size="10">StreamSwarm Client</text>
  <text x="130" y="695" text-anchor="middle" class="white-text" font-size="10">Network Testing Agent</text>

  <!-- Cloud Clients -->
  <rect x="990" y="150" width="160" height="120" rx="10" class="network-box"/>
  <text x="1070" y="175" text-anchor="middle" class="white-text" font-size="12">AWS CLOUD</text>
  <text x="1070" y="195" text-anchor="middle" class="white-text" font-size="11">US-East-1</text>
  
  <rect x="1010" y="210" width="120" height="50" rx="5" class="client-box"/>
  <text x="1070" y="230" text-anchor="middle" class="white-text" font-size="10">StreamSwarm Client</text>
  <text x="1070" y="245" text-anchor="middle" class="white-text" font-size="10">Cloud Instance</text>

  <rect x="990" y="300" width="160" height="120" rx="10" class="network-box"/>
  <text x="1070" y="325" text-anchor="middle" class="white-text" font-size="12">AZURE CLOUD</text>
  <text x="1070" y="345" text-anchor="middle" class="white-text" font-size="11">Europe-West</text>
  
  <rect x="1010" y="360" width="120" height="50" rx="5" class="client-box"/>
  <text x="1070" y="380" text-anchor="middle" class="white-text" font-size="10">StreamSwarm Client</text>
  <text x="1070" y="395" text-anchor="middle" class="white-text" font-size="10">Cloud Instance</text>

  <!-- Enterprise Network Infrastructure -->
  <rect x="250" y="450" width="160" height="120" rx="10" class="network-box"/>
  <text x="330" y="475" text-anchor="middle" class="white-text" font-size="12">ENTERPRISE NETWORK</text>
  <text x="330" y="495" text-anchor="middle" class="white-text" font-size="11">GNMI-Enabled Devices</text>
  
  <rect x="270" y="510" width="120" height="20" rx="3" fill="rgba(255,255,255,0.2)"/>
  <text x="330" y="523" text-anchor="middle" class="white-text" font-size="9">Cisco Routers</text>
  
  <rect x="270" y="535" width="120" height="20" rx="3" fill="rgba(255,255,255,0.2)"/>
  <text x="330" y="548" text-anchor="middle" class="white-text" font-size="9">Juniper Switches</text>
  
  <rect x="270" y="560" width="120" height="20" rx="3" fill="rgba(255,255,255,0.2)"/>
  <text x="330" y="573" text-anchor="middle" class="white-text" font-size="9">Enterprise Firewalls</text>

  <!-- Data Flow Connections -->
  <line x1="210" y1="235" x2="400" y2="200" class="data-flow" marker-end="url(#dataflow)"/>
  <line x1="210" y1="385" x2="400" y2="230" class="data-flow" marker-end="url(#dataflow)"/>
  <line x1="210" y1="535" x2="400" y2="260" class="data-flow" marker-end="url(#dataflow)"/>
  <line x1="210" y1="685" x2="400" y2="290" class="data-flow" marker-end="url(#dataflow)"/>
  <line x1="990" y1="235" x2="800" y2="200" class="data-flow" marker-end="url(#dataflow)"/>
  <line x1="990" y1="385" x2="800" y2="230" class="data-flow" marker-end="url(#dataflow)"/>

  <!-- GNMI Telemetry -->
  <line x1="410" y1="510" x2="450" y2="250" class="data-flow" marker-end="url(#dataflow)"/>

  <!-- Connection Labels -->
  <text x="305" y="215" class="small-label">HTTPS/REST API</text>
  <text x="305" y="365" class="small-label">Test Results</text>
  <text x="305" y="515" class="small-label">Performance Data</text>
  <text x="305" y="665" class="small-label">System Metrics</text>
  <text x="895" y="215" class="small-label">HTTPS</text>
  <text x="895" y="365" class="small-label">Cloud Monitoring</text>
  <text x="430" y="490" class="small-label">GNMI Telemetry</text>

  <!-- Legend -->
  <rect x="250" y="730" width="360" height="140" rx="5" fill="rgba(52, 73, 94, 0.1)" stroke="#34495e" stroke-width="1"/>
  <text x="430" y="750" text-anchor="middle" class="label" font-weight="bold">LEGEND</text>
  
  <rect x="260" y="765" width="20" height="15" class="server-box"/>
  <text x="290" y="777" class="small-label">Central Server and Database</text>
  
  <rect x="260" y="785" width="20" height="15" class="client-box"/>
  <text x="290" y="797" class="small-label">Distributed Monitoring Clients</text>
  
  <rect x="260" y="805" width="20" height="15" class="network-box"/>
  <text x="290" y="817" class="small-label">Network Locations and Infrastructure</text>
  
  <rect x="260" y="825" width="20" height="15" class="internet-box"/>
  <text x="290" y="837" class="small-label">External Internet Dependencies</text>
  
  <line x1="260" y1="850" x2="300" y2="850" class="data-flow"/>
  <text x="310" y="855" class="small-label">Performance Data Flow</text>
  
  <line x1="450" y1="770" x2="490" y2="770" class="internet-flow"/>
  <text x="500" y="775" class="small-label">Internet Access Required</text>

  <!-- Key Features Box -->
  <rect x="650" y="450" width="220" height="140" rx="10" fill="rgba(44, 62, 80, 0.1)" stroke="#2c3e50" stroke-width="2"/>
  <text x="760" y="475" text-anchor="middle" class="label" font-weight="bold">KEY CAPABILITIES</text>
  
  <text x="660" y="495" class="small-label">• 65+ Network Performance Metrics</text>
  <text x="660" y="510" class="small-label">• AI/ML Anomaly Detection</text>
  <text x="660" y="525" class="small-label">• Geolocation Path Visualization</text>
  <text x="660" y="540" class="small-label">• GNMI Enterprise Telemetry</text>
  <text x="660" y="555" class="small-label">• Zero-Trust Local ML Processing</text>
  <text x="660" y="570" class="small-label">• Real-time Performance Prediction</text>

  <!-- Network Requirements Box -->
  <rect x="650" y="620" width="220" height="120" rx="10" fill="rgba(231, 76, 60, 0.1)" stroke="#e74c3c" stroke-width="2"/>
  <text x="760" y="645" text-anchor="middle" class="label" font-weight="bold">NETWORK REQUIREMENTS</text>
  
  <text x="660" y="665" class="small-label">• Outbound HTTPS (443) to Server</text>
  <text x="660" y="680" class="small-label">• Outbound HTTP (80) for Geolocation</text>
  <text x="660" y="695" class="small-label">• GNMI Access (830/32768) to Devices</text>
  <text x="660" y="710" class="small-label">• Standard Network Tools (ping, traceroute)</text>
  <text x="660" y="725" class="small-label">• Optional: MTR for enhanced analysis</text>

</svg>